<svg xmlns="http://www.w3.org/2000/svg" fill="none" viewBox="0 0 498 47" height="47" width="498">
<g clip-path="url(#clip0_6509_6514)">
<path fill="white" d="M154.4 1.30005V3.10005L154.9 3.30005C156.2 3.80005 156.5 4.20005 156.5 6.40005V36.4001C155.2 34.9001 126.1 1.40005 126.1 1.40005H119.4V3.30005L120 3.40005C120.6 3.50005 121.6 3.90005 121.6 6.00005V41.9001C121.6 42.6001 121.1 43.2001 120.2 43.4001L119.6 43.6V45.6H127.6V43.6L127 43.4001C125.7 43.1001 125.5 41.5 125.5 40.8V7.80005C126.8 9.30005 158.9 46.1 158.9 46.1H160.6V5.10005C160.6 4.10005 161 3.60005 162 3.40005L162.6 3.30005V1.30005H162H154.4Z"></path>
<path fill="white" d="M189.7 1.30005H173.2H172.5V3.20005L173 3.40005C174.3 3.80005 174.7 4.40005 174.7 6.10005V40.6C174.7 42.8 174.2 43.1 173.1 43.5L172.6 43.7001V45.6H187.6C202.5 45.6 211.7 37 211.7 23.4C211.8 10.1 202.9 1.30005 189.7 1.30005ZM179.6 5.20005H188.8C199.5 5.20005 206.7 12.4001 206.7 23.2001C206.7 35.0001 199.6 41.5 186.6 41.5H179.5V5.20005H179.6Z"></path>
<path fill="white" d="M250.7 39C249 40.8 247.4 41.5 244.8 41.5H227.1C227.1 40.7 227.1 23.6 227.1 22.8H246C246.7 22.8 247.4 22.9 247.8 23C248.1 23.2 248.5 23.6 248.7 24.4L248.9 24.9H250.7V16.9H248.8L248.7 17.5C248.5 18.2 248.1 19 245.8 19H227.1C227.1 18.3 227.1 6.00005 227.1 5.30005H245C247.2 5.30005 248.4 5.80005 250.1 7.50005L250.3 7.70005H252.7L249.5 1.30005H249.2H220.2V3.30005L220.8 3.40005C221.9 3.70005 222.2 4.20005 222.2 7.30005V41C222.2 42.4 222 43 220.8 43.5L220.4 43.7001L220.2 45.6H250.2L253.4 38.9001H251L250.7 39Z"></path>
<path fill="white" d="M58 1.30005V3.20005L58.6 3.30005C59.2 3.40005 59.5 3.80005 59.5 4.50005C59.5 5.20005 59.2 6.20005 59.1 6.60005C59.1 6.60005 50.3 31.9001 48.4 37.4001C47.6 35.4001 37 6.10005 37 6.10005C36.6 5.10005 36.5 4.40005 36.5 4.00005C36.5 3.60005 36.5 3.40005 37.5 3.30005H38.2V1.30005H29.1V3.10005L29.6 3.30005C30 3.40005 30.3 3.60005 30.3 4.30005C30.3 4.90005 30.1 5.60005 29.8 6.30005C29.8 6.40005 20.9 32.4001 18.9 37.9001C18.3 35.9001 8 6.80005 8 6.80005C7.7 5.80005 7.5 5.10005 7.5 4.60005C7.5 4.10005 7.7 3.70005 8.6 3.30005L9.1 3.10005V1.30005H0V3.10005L0.5 3.30005C2.1 4.00005 2.6 5.40005 3.8 8.40005H3.7C3.8 8.60005 4.6 10.9001 17.3 46.5L17.4 46.8H20L31 15.2C31 15.2 32.4 10.9 33.1 8.80005C33.7 11 34.4 13 35.4 15.5L35.3 15.4C35.4 15.6 36.1 17.7001 46.4 46.5L46.5 46.8H49.1L62.8 7.50005C64 4.20005 65.1 3.50005 65.6 3.40005L66.2 3.30005V1.30005H65.8H58Z"></path>
<path fill="white" d="M103 1.30005V3.20005L103.6 3.30005C104.9 3.50005 105.2 4.70005 105.2 5.60005V28.8C105.2 37.6 100.1 42.6 91.2996 42.6C82.6996 42.6 77.9996 37.7001 77.9996 28.6V5.60005C77.9996 4.40005 78.4996 3.60005 79.4996 3.30005L79.9996 3.20005V1.30005H71.0996V3.10005L71.6996 3.30005C72.8996 3.60005 73.0996 4.90005 73.0996 5.50005V27.7001C73.0996 40.2001 79.5996 46.8 92.0996 46.8C100.8 46.8 109.5 41.1 109.5 28.4V5.90005C109.5 4.40005 110 3.50005 110.9 3.30005L111.5 3.20005V1.30005H111H103Z"></path>
<path fill="white" d="M295.1 38.3999C293.3 35.9999 291.1 32.8999 288.3 30.0999C285.9 27.6999 283.8 25.9999 281.7 24.4999C285.9 24.1999 289.5 22.8999 291.8 20.5999C293.9 18.5999 295 15.8999 295 12.6999C295 5.7999 289.9 1.3999 282.2 1.3999H265.5H264.8V3.1999L265.3 3.3999C266.4 3.7999 266.7 4.1999 266.7 5.4999V41.5999C266.7 42.5999 266.3 43.1999 265.3 43.5999L264.8 43.7999V45.5999H273.7V43.6999L273.2 43.5999C272 43.1999 271.6 42.5999 271.6 40.6999V24.1999C277.9 24.4999 291.6 40.2999 292.5 42.4999V42.6999V42.7999C292.4 42.9999 292 43.1999 291.2 43.4999L291 43.5999L290.8 43.6999V45.4999H300.2V43.5999L299.7 43.4999C298.5 43.0999 297 40.9999 295.1 38.3999ZM271.6 5.1999H280C286.5 5.1999 289.9 7.6999 289.9 12.4999C289.9 18.9999 285.2 20.2999 277.6 20.2999H271.5V5.1999H271.6Z"></path>
<path fill="white" d="M497.8 43.4999C496.6 43.1999 495 40.9999 493.3 38.3999C491.5 35.8999 489.3 32.8999 486.5 30.0999C484.1 27.6999 481.9 25.8999 480 24.4999C484.2 24.1999 487.8 22.8999 490 20.5999C492.1 18.5999 493.1 15.8999 493.1 12.6999C493.1 5.7999 488 1.3999 480.3 1.3999H463.6H462.8V3.1999L463.3 3.3999C464.4 3.7999 464.7 4.2999 464.7 5.4999V41.5999C464.7 42.5999 464.3 43.1999 463.3 43.5999L462.8 43.7999V45.5999H471.6V43.6999L471.1 43.5999C469.9 43.1999 469.5 42.5999 469.5 40.6999V24.1999C475.9 24.4999 489.6 40.2999 490.4 42.4999C490.4 42.5999 490.5 42.6999 490.5 42.6999C490.5 42.7999 490.4 42.7999 490.4 42.7999C490.3 42.9999 489.9 43.1999 489.1 43.4999L488.6 43.6999V45.4999H498V43.5999L497.8 43.4999ZM469.7 5.1999H478.1C484.6 5.1999 488 7.6999 488 12.4999C488 18.9999 483.3 20.2999 475.7 20.2999H469.6V5.1999H469.7Z"></path>
<path fill="white" d="M359.8 1.30005V3.20005L360.4 3.30005C360.9 3.40005 361.3 3.60005 361.3 4.50005C361.3 5.40005 361 6.30005 360.8 6.60005C360.9 6.60005 360.8 6.60005 354.9 23.7001C354.9 23.7001 350.8 35.6001 350.1 37.4001C349.4 35.5001 338.8 6.10005 338.8 6.10005C338.5 5.10005 338.3 4.40005 338.3 4.00005C338.3 3.60005 338.3 3.40005 339.4 3.30005H340.1V1.30005H330.9V3.10005L331.5 3.30005C331.9 3.40005 332.1 3.60005 332.1 4.30005C332.1 4.90005 332 5.60005 331.7 6.30005C331.7 6.40005 322.7 32.4001 320.8 37.9001C320.1 35.9001 309.8 6.80005 309.8 6.80005C309.5 5.80005 309.3 5.10005 309.3 4.60005C309.3 4.10005 309.5 3.70005 310.4 3.30005L310.9 3.10005V1.30005H301.8V3.10005L302.2 3.30005C303.9 4.10005 304.5 5.50005 305.5 8.50005L319.2 46.9001H321.9L332.8 15.3C332.8 15.3 334.3 10.9 335 8.90005C335.6 11 336.3 13 337.2 15.6V15.5C337.3 15.7 338 17.9 348.2 46.6L348.3 46.9001H350.9L364.5 7.60005C365.4 5.20005 366.4 3.70005 367.3 3.50005L367.9 3.40005V1.30005H367.5H359.8Z"></path>
<path fill="white" d="M404.2 39C402.5 40.8 400.8 41.5 398.3 41.5H380.6V22.9H399.5C400.2 22.9 400.9 23 401.3 23.1C401.7 23.3 402 23.7 402.3 24.5L402.5 25H404.3V17H402.4L402.2 17.6C402 18.3 401.6 19.1 399.3 19.1H380.6V5.30005H398.5C400.7 5.30005 402 5.80005 403.6 7.50005L403.8 7.70005H406.2L403 1.30005H402.8H373.7V3.30005L374.2 3.40005C375.4 3.70005 375.7 4.20005 375.7 7.30005V41C375.7 42.4 375.5 43 374.3 43.5L373.9 43.7001L373.7 45.6H403.7L406.9 38.9001H404.4L404.2 39Z"></path>
<path fill="white" d="M454.4 40.6C454.3 40.4 453.1 37.8 435.6 0.3L435.5 0H435.3H433.4L414.5 41.1C414.2 41.9 413.3 43.2 412.2 43.4L411.6 43.5V45.5H420.2V43.7L419.8 43.5C418.9 43.1 418.7 42.8 418.7 42.2C418.7 41.8 418.9 41.2 419.2 40.3C419.2 40.3 423.1 31.8 423.7 30.4H444.5C444.7 30.8 449.4 40.9 449.4 40.9C449.7 41.6 449.9 42.2 449.9 42.6C449.9 43 449.7 43.3 449 43.6L448.5 43.8V45.6H457.5V43.8L457 43.6C456 43.1 455.2 42.2 454.4 40.6ZM442.6 26.4H425.6C426.1 25.5 428.3 20.6 428.3 20.6C428.3 20.6 433.4 9.5 434 8.1C434.7 9.5 442.2 25.4 442.6 26.4Z"></path>
</g>
<defs>
<clipPath id="clip0_6509_6514">
<rect fill="white" height="46.9" width="498"></rect>
</clipPath>
</defs>
</svg>
